<svg xmlns="http://www.w3.org/2000/svg" width="64" height="64" viewBox="0 0 64 64">
  <defs>
    <rect id="rect-1" width="64" height="64" x="0" y="0"/>
  </defs>
  <g transform="translate(0 1)">
    <path fill="rgb(33,33,33)" fill-rule="evenodd" d="M52 0c6.627417 0 12 5.372583 12 12v37.6c0 6.627417-5.372583 12-12 12H12c-6.627417 0-12-5.372583-12-12V12C0 5.372583 5.372583 0 12 0h40z"/>
    <path fill="rgb(255,255,255)" fill-rule="evenodd" d="M17.60085869 18.69416428C17.65737534 15.2083559 20.50072479 12.39999962 24 12.39999962c3.4992752 0 6.34262466 2.80835628 6.39914322 6.29416466l.0008583.10583496v22.3999977c0 3.5346203-2.86537933 6.39999963-6.40000152 6.39999963-3.4992752 0-6.34262466-2.80835724-6.39914131-6.29416085l-.0008583-.10583877V18.79999924l.0008583-.10583496zm17.59914207 21.70583725c0-3.97645188 3.2235489-7.20000077 7.20000077-7.20000077 3.97644805 0 7.19999694 3.2235489 7.19999694 7.20000077 0 3.97644805-3.22354889 7.19999504-7.19999694 7.19999504-3.97645188 0-7.20000077-3.22354699-7.20000077-7.19999504z"/>
  </g>
</svg>
